<?xml version="1.0"?>
<svg xmlns:rdf="http://www.w3.org/1999/02/22-rdf-syntax-ns#" xmlns="http://www.w3.org/2000/svg" xmlns:cc="http://web.resource.org/cc/" xmlns:xlink="http://www.w3.org/1999/xlink" xmlns:dc="http://purl.org/dc/elements/1.1/" xmlns:svg="http://www.w3.org/2000/svg" id="svg2" viewBox="0 0 374.11 474.01" version="1.0">
  <defs id="defs3">
    <linearGradient id="linearGradient6081" y2="68.392" gradientUnits="userSpaceOnUse" y1="68.392" gradientTransform="matrix(.55137 0 0 8.3682 -710.83 -286.46)" x2="2003.2" x1="1980.3">
      <stop id="stop6077" stop-color="#847575" offset="0"/>
      <stop id="stop6079" stop-color="#847575" stop-opacity="0" offset="1"/>
    </linearGradient>
    <linearGradient id="linearGradient6877" y2="427.64" gradientUnits="userSpaceOnUse" y1="402.71" gradientTransform="matrix(3.7905 0 0 1.2173 -710.83 -286.46)" x2="316.86" x1="308.98">
      <stop id="stop6873" stop-color="#a79c9c" offset="0"/>
      <stop id="stop6875" stop-color="#a79c9c" stop-opacity="0" offset="1"/>
    </linearGradient>
    <linearGradient id="linearGradient9953" y2="556.84" gradientUnits="userSpaceOnUse" y1="550.52" gradientTransform="scale(1.4907 .67083)" x2="345.43" x1="345.96">
      <stop id="stop9949" stop-color="#d9c0c0" offset="0"/>
      <stop id="stop9951" stop-color="#d9c0c0" stop-opacity="0" offset="1"/>
    </linearGradient>
    <linearGradient id="linearGradient11529" y2="467.95" gradientUnits="userSpaceOnUse" y1="453.35" gradientTransform="matrix(3.8953 0 0 1.1845 -710.83 -286.46)" x2="305.35" x1="305.17">
      <stop id="stop11525" stop-color="#a59e9e" offset="0"/>
      <stop id="stop11527" stop-color="#a59e9e" stop-opacity="0" offset="1"/>
    </linearGradient>
    <linearGradient id="linearGradient12295" y2="535.37" gradientUnits="userSpaceOnUse" y1="480.68" gradientTransform="matrix(3.9511 0 0 1.1678 -710.83 -286.46)" x2="302.9" x1="301.18">
      <stop id="stop12291" stop-color="#a59e9e" offset="0"/>
      <stop id="stop12293" stop-color="#a59e9e" stop-opacity="0" offset="1"/>
    </linearGradient>
    <linearGradient id="linearGradient13061" y2="568.97" gradientUnits="userSpaceOnUse" y1="527.51" gradientTransform="matrix(3.8943 0 0 1.1848 -710.83 -286.46)" x2="304.95" x1="303.92">
      <stop id="stop13057" stop-color="#a8a1a1" offset="0"/>
      <stop id="stop13059" stop-color="#a8a1a1" stop-opacity="0" offset="1"/>
    </linearGradient>
    <linearGradient id="linearGradient14592" y2="406.98" gradientUnits="userSpaceOnUse" y1="393.09" gradientTransform="matrix(2.6692 0 0 1.7286 -710.83 -286.46)" x2="414.41" x1="413.92">
      <stop id="stop14588" stop-color="#999191" offset="0"/>
      <stop id="stop14590" stop-color="#999191" stop-opacity="0" offset="1"/>
    </linearGradient>
    <radialGradient id="radialGradient16898" fx="649.82" fy="308.3" gradientUnits="userSpaceOnUse" cy="308.21" cx="649.74" gradientTransform="scale(.77254 1.2944)" r="19.656">
      <stop id="stop16894" stop-color="#afa0a0" offset="0"/>
      <stop id="stop16896" stop-color="#afa0a0" stop-opacity="0" offset="1"/>
    </radialGradient>
  </defs>
  <g id="layer4" transform="translate(-357.53 -172.57)">
    <path id="path9955" d="m445.88 377.16a0.49652 0 0 0 1 -1 0h0.5z" stroke="#000" stroke-miterlimit="6" stroke-width=".63" fill="#d9c0c0"/>
  </g>
  <g id="layer5" transform="translate(-357.53 -172.57)">
    <g id="g2058">
      <path id="path1335" d="m363.45 182.03c-3.7 29.17-1.91 58.72-4.85 87.93 0.28 66.99 4.51 133.91 11.11 200.55 3.85 45.11-2.31 91.11 8.79 135.52 10.94 19.42 35.89 13.96 54.29 17.57 51.35 12.41 104.58 14.31 156.76 21.91-3.81-132.59-4.36-265.31 1.64-397.85 0.9-24.58 1.93-49.15 3.05-73.73-77-0.06-153.93 3.89-230.79 8.1z" fill-rule="evenodd" stroke="#000" stroke-width="2.148px" fill="#cac3c3"/>
      <path id="path1338" d="m590.56 643.78l15.74-9.31 115.15-109.48 4.14-144.54 2.49-91.6 2.48-84.43-121.82-28.85-0.37-1.83-12.16-0.09h-1.5l-5.8 135.95-2.49 112.35-0.83 43.65 0.83 25.76v23.61l0.83 25.76 0.83 50.81 1.66 41.5 0.82 10.74z" fill-rule="evenodd" fill-opacity=".99355" stroke="#000" stroke-width="2.148px" fill="#a8a8a8"/>
      <path id="path2127" d="m729 219.95l-117.63-22.18-6.62 425.04 118.46-105.18 5.79-297.68z" stroke="#000" stroke-width="2.148px" fill="none"/>
      <path id="path5248" d="m616.49 311.29a7.7062 24.911 0 1 1 0 -0.17" fill-opacity=".0064516" transform="matrix(2.4611 .047148 -.072589 1.9961 -778.24 -315.08)" stroke="#000" stroke-miterlimit="6" stroke-width=".63" fill="#9a9591"/>
      <path id="path5254" d="m686.76 319.02c-0.04 1.73-0.02 3.47-0.02 5.2v10.01c-0.03 1.64-0.03 3.32 0.14 4.91 0.53 1.6 0.28 3.42 0.27 5.11-0.23 1.64-0.26 3.18-0.77 4.77-0.25 0.88-0.04 1.83-0.05 2.75l-5.15 2.25c0.02-1-0.09-1.99-0.05-2.97 0.61-1.6 0.55-2.99 0.88-4.54 0.02-1.63 0.18-3.37-0.13-4.91-0.39-1.63-0.29-3.39-0.28-5.1v-10.02c0-1.73 0.03-3.45-0.02-5.18l5.18-2.28z"/>
      <path id="path5256" d="m681.61 353.66c3.52-2.51 4.44-2.93 4.76 0.59l-5.15 2.2c-1.06-3.46-1.02-3.99 5.1-5.74l-4.71 2.95z"/>
      <path id="path5258" d="m689.25 364.46c0.68 1.39 1.07 2.98 1.27 4.46-0.05 1.42 0.55 2.97 1.38 4.28 0.29 1.49 1.18 2.37 2.32 3.39 0.43 0.39 0.75 1.1 0.99 1.6l-4.95 2.6c-0.34-0.57-0.53-1.21-1.03-1.65-1.11-0.97-2.09-1.92-2.22-3.27-1.05-1.43-1.55-3.14-1.63-4.73-0.44-1.4-0.24-3.12-1.31-4.4l5.18-2.28z"/>
      <path id="path5260" d="m698.74 368.24c2.66 0.13 3.49-0.87-3.33 2.22-2.57 1.17 10.53-4.25 8-3.01-1.56 0.76-3.12 1.53-4.69 2.29 0.06-0.08 0.11-0.15 0.17-0.23 0.36-1.68 6.12-5.14 3.78-1.19-12.59 5.2 7.11-2.15-5.32 2.99 1.61-3.19 3.69-3.32 6.59-4.42-14.34 8.53-0.62-0.44-4.12 2.69l-5.41 1.82c3.99-2.93 12.72-5.96 4.3-2.44 8.23-5.21 5.61-2.5 3.91 0.36-0.09 0.1-0.18 0.21-0.27 0.32-1.72 0.99-3.45 1.98-5.17 2.97-5.58 2.96 4.05-4.35 4.68-4.72 1.46-0.85-3.01 1.56-4.52 2.34 1.75-1.89 8.83-7.48 6.9-2.65-1.8 1.01-3.86 3.14-6.23 3.25-0.57 0.02-2.18 0.23-1.7-0.02 10.35-5.57 1.42 0.37-2.27 0.38l4.7-2.95z"/>
      <path id="path5262" d="m696.67 362.51c-11.42 4.17 1.18-0.38 5.58-0.34 6.22-1.43-13.24 7.54 2.33-0.52 1.56-0.81-3.16 1.56-4.76 2.31-0.45 0.21 0.78-0.59 1.12-0.92 1.47-1.41 3.8-1.92 5.72-2.84-5.15 2.78-1.7 1.64-6.22 1.69 3.1-2.72 5.94-1.6-3.42 2.48 1.96-2.15 9.07-3-1.77 0.88-1.67 0.6 6.19-3.22 4.76-2.26-14.58 9.8 11.37-3.85-6 2.97-1.65 0.65 6.15-3.27 4.76-2.27-1.55 1.11-3.49 1.74-5.23 2.61-0.51 0.13-0.37-0.91-0.37-0.92l5.34-1.95c-0.15-0.09-0.43-0.06-0.45-0.26-12.12 6.11 0.09-0.07 0.56-0.21 1.7-0.51-3.1 1.58-4.64 2.39-1.79 0.94 4.11-1.42 5.32-2.9 1.04-1.27-6.38 2.91-4.69 2.35 16.63-5.47-11.5 4.03 6.99-3.49-8.91 5.02-0.85-1.51 3.53-2.33 5.85-0.52 2.36 4.13-3.01 4.28 11.69-6.02-1.59 1.18-2.11 1.46-1.55 0.8 3.08-1.62 4.65-2.41 2.24-1.12-4.78 3.81-7.08 2.78-12.66-0.01 9.58-5.17-5.61 0.37l4.7-2.95z"/>
      <path id="path5264" d="m694.19 356.43c3.14 0.22 5.58-1.18-2.13 2.27-1.87 0.84 3.67-1.81 5.46-2.77 1.54-0.83-3.15 1.55-4.75 2.3-1.98 0.94 8.02-3.58 6.09-2.56-1.54 0.82-3.19 1.48-4.78 2.22 1.18-1.04 14.77-5.53 2.96-0.26-1.98 0.89 7.82-3.73 5.92-2.71-1.38 0.74-2.87 1.33-4.31 1.99 2.43-2.06 13.3-5.55 2.53-0.73-2 0.9 7.8-3.9 5.83-2.96-1.3 0.62-2.72 1.04-4.07 1.56-9.87-0.47 9.13-3.24 7.51-2.29-1.98 1.17-8.48 3.86-6.38 2.87 10.58-4.98 0.88-0.47-1.41 0.5-6.29 1.41 15.05-5.59-2.06 0.78-1.67 0.62 3.16-1.56 4.77-2.3 2.2-1.02-4.19 2.38-6.41 3.37 1.59-0.75 6.15-3.26 4.77-2.25-8.5 6.27-3.22 1.32-6.47 2.75-0.4 0.18-1.75 0.37-1.36 0.16 7.17-3.76 5.51-2.26-0.66 0.41-1.63 0.71 3.16-1.55 4.76-2.3 1.88-0.87-3.72 1.79-5.61 2.66-4.06-0.82-9.04 2.02-0.59-2.38 10.54-2.32-9.95 5.98 5.44-0.77 2.83 0.39 4.05-0.79-3.02 2.36-2.22 0.99 9-3.71 6.86-2.6-9.52 4.96-2.39 1.09 1.13-0.48 2.72 0.36 3.03-0.52-3.43 2.36-2.1 0.94 8.4-3.71 6.39-2.64-9.74 5.15-1.9 0.5 1.1-0.87 1.61-0.73-3.16 1.52-4.75 2.27 1.75-0.85 3.5-1.71 5.25-2.57 0.14 0 0.53-0.04 0.41 0.02-1.59 0.75-3.18 1.51-4.77 2.27 0.08-0.06 0.16-0.12 0.23-0.17l5.4-1.83c-2.82 1.4-11.23 5.53-1.12 0.47-2.05 0.99-7.77 4.02-9.37 3.63-0.12 0.03-0.23 0.06-0.35 0.09 1.55-0.8 3.11-1.6 4.66-2.4 1.83-0.9-3.58 1.92-5.47 2.73-2.36 1.01-1.22-0.12 3.36-2.41 0.2-0.1-5.17 3.94-7.17 2.7 10.47-5.69-1.5 2.29-5.96 0.13 4.42-2.63 5.67-3.3 10.39-2.91-1.55 0.78-3.11 1.55-4.64 2.35-1.81 0.94 3.67-1.79 5.46-2.75 1.54-0.83-3.11 1.6-4.68 2.39-2.16 1.08 4.23-2.44 6.64-2.98 1.37-0.31-4.79 2.53-3.46 2.12 1.89-0.58 3.51-1.68 5.27-2.53-11.5 5.87 0.55-0.56 1.59-1.14 1.53-0.83-3.1 1.58-4.66 2.37-2.2 1.1 4.28-2.99 6.83-2.99 0.14-0.01 0.27-0.02 0.41-0.02-1.56 0.81-3.12 1.63-4.67 2.45-2.17 1.13 8.62-4.58 6.59-3.27-1.61 1.03-11.54 6.59-1.36 0.8-2.74 1.6-11.92 6.26-1.59 1.17 2.14-1.06-8.8 3.88-6.71 2.73 7.56-4.15 5.59-2.84 3.89-2.01-2.29 1.23-11.9 5.95-1.34 0.68 2.36-1.18-9.85 4.02-7.53 2.78 1.54-0.82 3.11-1.57 4.67-2.36-0.08 0.05-0.16 0.1-0.24 0.16-17.34 8.13 10.56-5.41-6.53 2.9-1.57 0.77 3.09-1.62 4.65-2.41 1.42-0.71-6.41 4.17-8.12 2.8l4.71-2.95z"/>
      <path id="path5266" d="m692.94 348.2c2.24 0.87 2.7 1.08 5.19 1.08 3.61 3.63-5.14 2.46-7.11 2.27-4.26-0.85 2.69-1.9 4.96-1.45-0.47 0.28 2.21-0.37 1.72-0.12-10.61 5.47-1.39-0.89 2.23-0.19l-4.96 2.68c6.67-4.46 3.76-0.46-3.74 0.48-5.62-1.51 1.46-5.67 4.75-4 6.33-0.95 1.43 5.96-2.52 3.24-2.39 0.1-3.08-0.69-5.22-1.04l4.7-2.95z"/>
      <path id="path5268" d="m711.61 345.85c-0.22 3.72-0.44 2.63-4.63 4.59l5.35-1.85c-8.12 4.01-6.04 3.19-5.9-0.46l5.18-2.28z"/>
      <path id="path5270" d="m692.53 341.76c2.2 0.52 3.27 1.71 5.58 1.4 0.28-0.01 0.55 0.02 0.82 0.03l-4.67 2.92c-0.26 0.01-0.52-0.02-0.78 0.02-2.27 0.16-3.42-1.24-5.66-1.42l4.71-2.95z"/>
      <path id="path5272" d="m692.15 344.42c0.06 0.07 0.19 0.07 0.29 0.11-1.65 0.76-3.24 1.63-4.94 2.3-2.57 1.01 10.14-4.29 7.65-3.14-10.21 4.69-1.44 0.92 1.28-0.23 0.82 0.21 1.66 0.11 2.49 0.1l-4.65 2.94c-0.84 0-1.67-0.01-2.5-0.1 1.4-0.75 5.67-2.91 4.21-2.25-16.18 7.31 5-3.36-9.02 2.55l5.19-2.28z"/>
      <path id="path5274" d="m696.37 333.52c0.57 1.56 0.27 3.51 0.42 5.01l-4.94 2.62c-0.44-1.59-0.15-3.39-0.42-5.01l4.94-2.62z"/>
      <path id="path5276" d="m692.56 335.84c0.07 0.62 1.58 1.05 2.11 1.42l-4.71 2.88c-0.92-0.63-2.19-1.06-2.58-2.02l5.18-2.28z"/>
      <path id="path5280" d="m693.77 328.52c-10.87 6.65 2.82-4.67 3.7 1.71-8.18 4.4-10.07 1.74-1.52-2.12-1.58 0.77-3.13 1.57-4.73 2.3-1.9 0.86 5.69-4.31 5.76-2.46 0.11 3.44-5.81 3.76-8.07 2.75l5-2.54c4.38 0.37-8.99 6.21 2.84 0.1 0.09-0.04-0.16 0.09-0.24 0.14-1.7 0.93-3.4 1.86-5.1 2.8 2.89-1.7 7.72-2.92 0.68 0.97-0.17-0.56-2.13-0.79-1.56-1.1 9.59-5.16 2.03-0.61-1.46 0.41l4.7-2.96z"/>
      <path id="path5282" d="m694.19 321.37c1.81 0.29 2.68 1.44 4.22 2.23-0.17 1.73-8.98 5.2-8.41 1.09 2.12-2.1 4.2-3.04 6.87-2.55l-4.71 2.86c1.05-0.74 1.8-2.16 3.16-2.22 1.14 0.8 6.11 0.56-1.81 3.45-1.48-0.69-2.22-1.86-4.03-1.91l4.71-2.95z"/>
      <path id="path5284" d="m696.26 313.5c2.15-0.26 2.51 1.15 4.29 1.54 3.1 1.17 9.34-1.76 0.2 2.5-2.75-0.58 7.58-3.14 10.12-2.63 0.6 1.51-2.98 1.94-4.67 2.58l5.34-1.91c-1.77 0.79-5.96 4.3-5.61 1.95-8.73 0.01 9.1-6.62-4.26 0.32-1.47 0.76 6.26-3.68 4.43-2.22-3.57 1.78-6.35 3.47-10.29 2.27-1.81-0.55-2.13-1.84-4.26-1.45l4.71-2.95z"/>
      <path id="path5286" d="m698.33 307.06c1.05 1.2 2.62 1.93 3.85 2.91 3.52 1.11 8.22-1.29 0.02 2.39 10.68-4.73 2.56-0.59-0.93-0.56-1.92-0.03-3.84-0.02-5.76-0.02 0.21-1.11 10.21-4.2 0.28 0.43l5.32-1.93c-8.03 4.15-9.25 1.61-0.94-1.42 1.93 0 3.85-0.02 5.78 0.02 10.8-0.63-12.55 8.12 1.6 1.56-4.19 2.14-6.04 3.65-10.23 2.21-1.15-0.93-2.57-1.69-3.7-2.64l4.71-2.95z"/>
      <path id="path5288" d="m699.84 302.14c8.68-4.35 2.38-1.31 3.45 0.83 2.27-0.68 2.85-1.01-3.73 2-2 0.91 3.92-2 5.82-3.08 1.49-0.86-3.11 1.54-4.68 2.29-1.95 0.92 8.34-2.51 6.41-1.57-1.66 0.8-3.33 1.58-5 2.37-1.33 0.63-2.62-0.81-4.02-1.12-5.77-0.58 2.75-5.9 4.55-2.24 0 0.27-0.37 0.44-0.56 0.66l-4.83 2.88c0.08-0.48-0.18-0.68 0.22-1.33-2.39-1.59 2.92-4.14 5.25-2.93 1.67 0.46 2.95 1.81 4.76 2.09-17.21 8.38 9.42-7.26-6.61 1.99-1.47 0.85 3-1.59 4.53-2.34 2.24-1.11-4.21 3.6-6.77 3.26-2.99-3.11 2.88-5.21 5.91-6.72l-4.7 2.96z"/>
      <path id="path5290" d="m698.77 290.04c-0.42 4.88-12.45 7.22-2.19 3.68-0.6 2.6-0.84 2.19-5.88 3.91-1.68 0.57 6.21-3.19 4.76-2.26-9.51 6.11-2.82 0.9 0.98 0.7l-4.58 2.98c-9.11-2.29 12.17-9.18-1.15-2.01-0.4 0.22 1.24-0.98 0.77-1.03 0.05-2.81 0.83-0.75 5.38-3.98 7.12-5.04-6.73 5.7-3.27 0.29l5.18-2.28z"/>
      <path id="path5292" d="m705.37 290.96c6.72 2.55-14.06 9.31-0.62 1.21l-4.54 3.16c9.87-6.03 3.46 1.31 0.45-1.42l4.71-2.95z"/>
      <path id="path5294" d="m692.11 300.97c0.31 0.4 0.9 1.18 0.15 1.58-11.28 6.01-0.5-3.32-0.55 3.07-0.63 0.83-0.73 1.85-0.97 2.84l-5.35 1.95c0.21-0.54 0.51-2.21 1.17-2.55 0.29-5.9 9.3-7.5 0.85-3.93l4.7-2.96z"/>
      <path id="path5299" d="m384.5 190.94l-1.72 63.94v13.88l-0.57 43.12 0.57 28.25v39.15l1.15 1.49 8.61-1.98-2.87-186.86-5.17-0.99z" fill-rule="evenodd" stroke="#000" stroke-width="2.148px" fill="url(#linearGradient6081)"/>
      <path id="path6083" d="m562.37 237.04l-171.55 2.47-0.58-47.58 171.56-6.44 0.57 51.55z" fill-rule="evenodd" stroke="#000" stroke-width="2.148px" fill="url(#linearGradient6877)"/>
      <path id="path6879" d="m390.82 239.02l170.98-2.48 1.15 50.55-170.99 0.5-1.14-48.57z" fill-rule="evenodd" stroke="#000" stroke-width="2.148px" fill="url(#linearGradient11529)"/>
      <path id="path6881" d="m562.37 287.59l1.15 49.56-170.98-3.96-1.15-45.6h170.98z" fill-rule="evenodd" stroke="#000" stroke-width="2.148px" fill="url(#linearGradient12295)"/>
      <path id="path6883" d="m392.54 332.69l0.57 46.59 169.26 3.97 0.58-47.09-170.41-3.47z" fill-rule="evenodd" stroke="#000" stroke-width="2.148px" fill="url(#linearGradient13061)"/>
      <path id="path6885" d="m433.27 393.65l1.15 27.76 127.38 4.46v-29.74l-128.53-2.48z" stroke="#000" stroke-width="2.148px" fill="none"/>
      <path id="path6887" d="m392.54 378.29l-8.61 2.48-0.57-0.5 1.14 1.49 40.17 1.49 33.85 0.99 54.51 0.99 49.34-0.99-169.83-5.95z" stroke="#000" stroke-width="2.148px" fill="none"/>
      <path id="path6895" d="m440.73 433.62v6.52l118.2 3.26-0.57-5.7-117.63-4.08z" stroke="#000" stroke-width="1.947px" fill-rule="evenodd"/>
      <path id="path9173" d="m533.76 365.74a8.9374 7.6961 0 0 1 -17.87 0.2l8.93-0.2z" transform="matrix(2.3066 .12586 -.14570 1.9924 -659.15 -351.05)" stroke="#000" stroke-miterlimit="6" stroke-width=".63" fill="url(#linearGradient9953)"/>
      <path id="path13826" d="m382.19 394.04l25.78 2.02v14.17l-25.78-0.51v-15.68z" fill-rule="evenodd" stroke="#000" stroke-width="2.148px" fill="url(#linearGradient14592)"/>
      <path id="path13824" d="m390.29 406.24c-0.83-1.93-0.55-2.92-1.98-4.27l7.22-3.31c1.04 0.98 1.6 1.92 1.41 3.41l-6.65 4.17z"/>
      <path id="path15356" d="m406.94 491.85c1.1 1.51 3.72 1.81 4.64 2.67 0.78 0.15 0.28 0.36 0.73 0.91l-7.62 2.73c0.05 0.13 1.04 0.77 0.17 0.39-1.74-0.32-3.87-1.9-5.24-3.47l7.32-3.23z"/>
      <path id="path15358" d="m418.07 492.36c0.8 3.49 3.45 0.42 4.24 3.76-0.58 0.76 0.28 0.39 0.43 0.59-2.26 0.97-4.53 1.94-6.79 2.91l7.6-2.57c-8.22 3.67-6.55 5.45-8.55 2.11-0.56-0.23-3.72-1.38-4.25-3.58l7.32-3.22z"/>
      <path id="path15360" d="m506.39 399.66a4.562 7.8568 0 1 1 0 -0.02" transform="matrix(2.3044 .15249 -.053342 .60150 -685.54 184.64)" stroke="#000" stroke-miterlimit="6" stroke-width=".63" fill="url(#radialGradient16898)"/>
      <path id="path16900" d="m536.29 449.08a22.683 9.8844 0 1 1 0 -0.03" transform="matrix(2.1976 .47287 -.52333 1.9858 -421.61 -532.65)" stroke="#000" stroke-miterlimit="6" stroke-width=".63" fill="#c8c5c5"/>
      <path id="path17660" d="m496.75 393.32" transform="matrix(2.0159 0 0 1.4564 -565.84 -72.809)" stroke="#000" stroke-miterlimit="6" stroke-width=".63" fill="#c8c5c5"/>
      <path id="path17664" d="m530.49 450.64c3.07 0.04 5.61-0.49 7.34 1.25l-7.26 3.2c-1.32-0.22-4.64-0.46-6.73-0.27l6.65-4.18z"/>
    </g>
  </g>
  <metadata>
    <rdf:RDF>
      <cc:Work>
        <dc:format>image/svg+xml</dc:format>
        <dc:type rdf:resource="http://purl.org/dc/dcmitype/StillImage"/>
        <cc:license rdf:resource="http://creativecommons.org/licenses/publicdomain/"/>
        <dc:publisher>
          <cc:Agent rdf:about="http://openclipart.org/">
            <dc:title>Openclipart</dc:title>
          </cc:Agent>
        </dc:publisher>
        <dc:title>case</dc:title>
        <dc:date>2006-12-27T02:54:02</dc:date>
        <dc:description>case, clip art, clipart, colour, computer, contour, desktop, grey, image, media, office, outline, png, public domain, school, svg, technology, </dc:description>
        <dc:source>http://openclipart.org/detail/2294/case-by-machovka</dc:source>
        <dc:creator>
          <cc:Agent>
            <dc:title>Machovka</dc:title>
          </cc:Agent>
        </dc:creator>
        <dc:subject>
          <rdf:Bag>
            <rdf:li>case</rdf:li>
            <rdf:li>clip art</rdf:li>
            <rdf:li>clipart</rdf:li>
            <rdf:li>colour</rdf:li>
            <rdf:li>computer</rdf:li>
            <rdf:li>contour</rdf:li>
            <rdf:li>desktop</rdf:li>
            <rdf:li>grey</rdf:li>
            <rdf:li>image</rdf:li>
            <rdf:li>media</rdf:li>
            <rdf:li>office</rdf:li>
            <rdf:li>outline</rdf:li>
            <rdf:li>png</rdf:li>
            <rdf:li>public domain</rdf:li>
            <rdf:li>school</rdf:li>
            <rdf:li>svg</rdf:li>
            <rdf:li>technology</rdf:li>
          </rdf:Bag>
        </dc:subject>
      </cc:Work>
      <cc:License rdf:about="http://creativecommons.org/licenses/publicdomain/">
        <cc:permits rdf:resource="http://creativecommons.org/ns#Reproduction"/>
        <cc:permits rdf:resource="http://creativecommons.org/ns#Distribution"/>
        <cc:permits rdf:resource="http://creativecommons.org/ns#DerivativeWorks"/>
      </cc:License>
    </rdf:RDF>
  </metadata>
</svg>
